# Blender v3.0.0 OBJ File: 'arene.blend'
# www.blender.org
o Cube
v 35.917469 12.419817 -35.255100
v 35.917469 4.783523 -35.255100
v 35.917469 12.419817 35.706997
v 35.917469 4.783523 35.706997
v -35.044628 12.419817 -35.255100
v -35.044628 4.783523 -35.255100
v -35.044628 12.419817 35.706997
v -35.044628 4.783523 35.706997
v -31.960575 12.419817 -32.171047
v 32.833416 12.419817 32.622944
v -31.960575 12.419817 32.622944
v 32.833416 12.419817 -32.171047
v -31.960575 4.783523 32.622944
v 32.833416 4.783523 -32.171047
v -31.960575 4.783523 -32.171047
v 32.833416 4.783523 32.622944
vn 0.0000 1.0000 0.0000
vn 0.0000 0.0000 1.0000
vn -1.0000 0.0000 0.0000
vn 0.0000 -1.0000 -0.0000
vn 1.0000 0.0000 0.0000
vn 0.0000 0.0000 -1.0000
s off
f 7//1 10//1 11//1
f 1//1 9//1 12//1
f 3//2 8//2 4//2
f 7//3 6//3 8//3
f 6//4 14//4 15//4
f 4//4 13//4 16//4
f 1//5 4//5 2//5
f 5//6 2//6 6//6
f 7//1 10//1 11//1
f 1//1 9//1 12//1
f 10//6 13//6 11//6
f 9//5 13//5 15//5
f 12//3 16//3 10//3
f 12//2 15//2 14//2
f 11//1 9//1 7//1
f 9//1 5//1 7//1
f 7//1 3//1 10//1
f 12//1 10//1 1//1
f 10//1 3//1 1//1
f 1//1 5//1 9//1
f 3//2 7//2 8//2
f 7//3 5//3 6//3
f 13//4 8//4 6//4
f 6//4 2//4 14//4
f 15//4 13//4 6//4
f 16//4 14//4 4//4
f 14//4 2//4 4//4
f 4//4 8//4 13//4
f 1//5 3//5 4//5
f 5//6 1//6 2//6
f 11//1 9//1 7//1
f 9//1 5//1 7//1
f 7//1 3//1 10//1
f 12//1 10//1 1//1
f 10//1 3//1 1//1
f 1//1 5//1 9//1
f 10//6 16//6 13//6
f 9//5 11//5 13//5
f 12//3 14//3 16//3
f 12//2 9//2 15//2
